<svg width="32" height="32" viewBox="0 0 32 32" fill="none" xmlns="http://www.w3.org/2000/svg">
  <rect width="32" height="32" rx="8" fill="#4F46E5"/>
  <path d="M8 20L12.586 15.414C13.3671 14.6329 14.6329 14.6329 15.4142 15.4142L20 20M18 18L19.5858 16.4142C20.3668 15.6332 21.6332 15.6332 22.4142 16.4142L24 18M18 12H18.01M10 24H22C23.1046 24 24 23.1046 24 22V10C24 8.89543 23.1046 8 22 8H10C8.89543 8 8 8.89543 8 10V22C8 23.1046 8.89543 24 10 24Z" stroke="white" stroke-width="2" stroke-linecap="round" stroke-linejoin="round"/>
</svg>